<svg width="33" height="33" viewBox="0 0 33 33" fill="none" xmlns="http://www.w3.org/2000/svg">
<path d="M9.90916 33C9.00082 33 8.22322 32.6769 7.57638 32.0306C6.92953 31.3844 6.6061 30.6075 6.6061 29.7C6.6061 28.7925 6.92953 28.0156 7.57638 27.3694C8.22322 26.7231 9.00082 26.4 9.90916 26.4C10.8175 26.4 11.5951 26.7231 12.2419 27.3694C12.8888 28.0156 13.2122 28.7925 13.2122 29.7C13.2122 30.6075 12.8888 31.3844 12.2419 32.0306C11.5951 32.6769 10.8175 33 9.90916 33ZM26.4244 33C25.5161 33 24.7385 32.6769 24.0916 32.0306C23.4448 31.3844 23.1214 30.6075 23.1214 29.7C23.1214 28.7925 23.4448 28.0156 24.0916 27.3694C24.7385 26.7231 25.5161 26.4 26.4244 26.4C27.3328 26.4 28.1103 26.7231 28.7572 27.3694C29.404 28.0156 29.7275 28.7925 29.7275 29.7C29.7275 30.6075 29.404 31.3844 28.7572 32.0306C28.1103 32.6769 27.3328 33 26.4244 33ZM8.50536 6.6L12.469 14.85H24.0297L28.5714 6.6H8.50536ZM6.93641 3.3H31.2964C31.9295 3.3 32.4112 3.58188 32.7415 4.14563C33.0718 4.70938 33.0856 5.28 32.7828 5.8575L26.9199 16.4175C26.6171 16.9675 26.2111 17.3938 25.7019 17.6963C25.1927 17.9988 24.6353 18.15 24.0297 18.15H11.7258L9.90916 21.45H29.7275V24.75H9.90916C8.67051 24.75 7.73465 24.2069 7.10156 23.1206C6.46848 22.0344 6.44095 20.955 7.01899 19.8825L9.24855 15.84L3.30305 3.3H0V0H5.36746L6.93641 3.3Z" fill="white"/>
</svg>
