<svg width="33" height="33" viewBox="0 0 33 33" fill="none" xmlns="http://www.w3.org/2000/svg">
<path d="M16.5 15.942C14.2312 15.942 12.375 15.1981 10.9312 13.7101C9.4875 12.2222 8.76562 10.3092 8.76562 7.97101C8.76562 5.63285 9.4875 3.71981 10.9312 2.23188C12.375 0.743961 14.2312 0 16.5 0C18.7687 0 20.625 0.743961 22.0687 2.23188C23.5125 3.71981 24.2344 5.63285 24.2344 7.97101C24.2344 10.3092 23.5125 12.2222 22.0687 13.7101C20.625 15.1981 18.7687 15.942 16.5 15.942ZM0 33V28.0048C0 26.6586 0.326562 25.5072 0.979687 24.5507C1.63281 23.5942 2.475 22.868 3.50625 22.372C5.80937 21.3092 8.01797 20.5121 10.132 19.9807C12.2461 19.4493 14.3687 19.1836 16.5 19.1836C18.6312 19.1836 20.7453 19.4581 22.8422 20.0072C24.9391 20.5564 27.1377 21.348 29.4381 22.3821C30.514 22.8827 31.3766 23.6084 32.026 24.5592C32.6753 25.5101 33 26.6586 33 28.0048V33H0ZM3.09375 29.8116H29.9062V28.0048C29.9062 27.438 29.743 26.8977 29.4164 26.3841C29.0898 25.8704 28.6859 25.4895 28.2047 25.2415C26.0047 24.1433 23.9937 23.3905 22.1719 22.9831C20.35 22.5757 18.4594 22.372 16.5 22.372C14.5406 22.372 12.6328 22.5757 10.7766 22.9831C8.92031 23.3905 6.90937 24.1433 4.74375 25.2415C4.2625 25.4895 3.86719 25.8704 3.55781 26.3841C3.24844 26.8977 3.09375 27.438 3.09375 28.0048V29.8116ZM16.5 12.7536C17.8406 12.7536 18.9492 12.3019 19.8258 11.3986C20.7023 10.4952 21.1406 9.35266 21.1406 7.97101C21.1406 6.58937 20.7023 5.44686 19.8258 4.54348C18.9492 3.6401 17.8406 3.18841 16.5 3.18841C15.1594 3.18841 14.0508 3.6401 13.1742 4.54348C12.2977 5.44686 11.8594 6.58937 11.8594 7.97101C11.8594 9.35266 12.2977 10.4952 13.1742 11.3986C14.0508 12.3019 15.1594 12.7536 16.5 12.7536Z" fill="white"/>
</svg>
