<svg width="37" height="31" viewBox="0 0 37 31" fill="none" xmlns="http://www.w3.org/2000/svg">
<path d="M9.81104 1.56104C14.3692 1.56104 18.061 5.01725 18.061 9.2809C18.061 5.01725 21.7529 1.56104 26.311 1.56104C30.8692 1.56104 34.561 5.01725 34.561 9.2809C34.561 15.7069 27.8909 17.9736 18.8695 28.2024C18.7702 28.3148 18.6464 28.4051 18.5068 28.467C18.3671 28.5289 18.215 28.561 18.061 28.561C17.9071 28.561 17.7549 28.5289 17.6153 28.467C17.4757 28.4051 17.3519 28.3148 17.2525 28.2024C8.23116 17.9736 1.56104 15.7069 1.56104 9.2809C1.56104 5.01725 5.25291 1.56104 9.81104 1.56104Z" stroke="white" stroke-width="3.12225"/>
</svg>
